<svg xmlns="http://www.w3.org/2000/svg"" width="2200" height="1400" viewBox="0, 0, 420, 297" > <rect id="ZN_1" x="1" y="1" width="418" height="295" rx="0" ry="0" fill="none" stroke="black" stroke-width="0.2" /><rect id="ZN_2" x="0" y="0" width="420" height="297" rx="0" ry="0" fill="none" stroke="black" stroke-width="0.2" /><g id="ZN_3" fill="" stroke="black" ><path id="ZN_3" stroke-width="0.3" d="M60.3,22.5L83.3,28.5"/></g><g id="ZN_4" fill="" stroke="black" ><path id="ZN_4" stroke-width="0.3" d="M83.3,28.5L106.3,34.5"/></g><g id="ZN_5" fill="" stroke="black" ><path id="ZN_5" stroke-width="0.3" d="M106.3,34.5L117.8,40.5"/></g><ellipse  cx="60.3" cy="22.5" rx="2.625" ry="1.275" fill="black" stroke="black" stroke-width="0"/><rect onclick="Opal.top.uicontroller.harpnote_preview_printer.$_clickabcnote(evt, id)" onmouseover="Opal.top.uicontroller.harpnote_preview_printer.$_bind_on_mouseover(evt, id)" class="abcref znref _107_" id="ZN_6" x="57.33125" y="20.54375" width="5.9375" height="3.9124999999999996"/><rect id="ZN_7" x="57.675" y="20.475" width="5.25" height="0.5" rx="0" ry="0" fill="black" stroke="black" stroke-width="0" /><ellipse  cx="83.3" cy="28.5" rx="2.625" ry="1.275" fill="black" stroke="black" stroke-width="0"/><rect onclick="Opal.top.uicontroller.harpnote_preview_printer.$_clickabcnote(evt, id)" onmouseover="Opal.top.uicontroller.harpnote_preview_printer.$_bind_on_mouseover(evt, id)" class="abcref znref _109_" id="ZN_8" x="80.33125" y="26.54375" width="5.9375" height="3.9124999999999996"/><ellipse  cx="106.3" cy="34.5" rx="2.625" ry="1.275" fill="black" stroke="black" stroke-width="0"/><rect onclick="Opal.top.uicontroller.harpnote_preview_printer.$_clickabcnote(evt, id)" onmouseover="Opal.top.uicontroller.harpnote_preview_printer.$_bind_on_mouseover(evt, id)" class="abcref znref _111_" id="ZN_9" x="103.33125" y="32.54375" width="5.9375" height="3.9124999999999996"/><ellipse  cx="117.8" cy="40.5" rx="2.625" ry="1.275" fill="black" stroke="black" stroke-width="0"/><rect onclick="Opal.top.uicontroller.harpnote_preview_printer.$_clickabcnote(evt, id)" onmouseover="Opal.top.uicontroller.harpnote_preview_printer.$_bind_on_mouseover(evt, id)" class="abcref znref _113_" id="ZN_10" x="114.83125" y="38.54375" width="5.9375" height="3.9124999999999996"/><g id="ZN_11" fill="none" stroke="black" ><path id="ZN_11" stroke-linecap="round" onmouseover="Opal.top.uicontroller.harpnote_preview_printer.$_bind_on_mouseover(evt, id)" stroke-width="0.5" d="M123.425 42.775l11.625000000000014 0l0 -21.549999999999997M135.05 42.775L135.05 20.225L67.925 20.225"/></g><g id="ZN_12" fill="black" stroke="black" ><path id="ZN_12" stroke-linecap="round" onmouseover="Opal.top.uicontroller.harpnote_preview_printer.$_bind_on_mouseover(evt, id)" stroke-width="0.1" d="M65.925 20.225l2.5 1l0 -2l-2.5 1z"/></g><g id="ZN_13" fill="black" stroke="black" ><path id="ZN_13" stroke-linecap="round" onmouseover="Opal.top.uicontroller.harpnote_preview_printer.$_bind_on_mouseover(evt, id)" stroke-width="0.1" d=""/></g><g id="ZN_14" x="304.76190476190476" y="7"><text x="304.76190476190476" y="7" id="ZN_14" font-size="6.666666666666667" font-family="Arial" transform="scale(1.05, 1) translate(0,-2.5)" font-weight="bold" text-anchor="start" onmouseover="Opal.top.uicontroller.harpnote_preview_printer.$_bind_on_mouseover(evt, id)"><tspan dy="1.2em" x="304.76190476190476">Repeat Test</tspan></text></g><g id="ZN_15" x="304.76190476190476" y="27"><text x="304.76190476190476" y="27" id="ZN_15" font-size="4" font-family="Arial" transform="scale(1.05, 1) translate(0,-1.5)" text-anchor="start" onmouseover="Opal.top.uicontroller.harpnote_preview_printer.$_bind_on_mouseover(evt, id)"><tspan dy="1.2em" x="304.76190476190476">alle Stimmen</tspan><tspan dy="1.2em" x="304.76190476190476">Zupfnoter TS Tests</tspan><tspan dy="1.2em" x="304.76190476190476">Takt: 4/4 (1/4=120)</tspan><tspan dy="1.2em" x="304.76190476190476">Tonart: C</tspan></text></g><g id="ZN_16" x="142.85714285714286" y="289"><text x="142.85714285714286" y="289" id="ZN_16" font-size="2" font-family="Arial" transform="scale(1.05, 1) translate(0,-0.75)" text-anchor="start" onmouseover="Opal.top.uicontroller.harpnote_preview_printer.$_bind_on_mouseover(evt, id)"><tspan dy="1.2em" x="142.85714285714286"> - created 2026-05-23 19:51:07 by Zupfnoter v1.17.1-13-g9ed6f579 [zupfnoter-cli]</tspan></text></g><g id="ZN_17" x="309.5238095238095" y="289"><text x="309.5238095238095" y="289" id="ZN_17" font-size="2" font-family="Arial" transform="scale(1.05, 1) translate(0,-0.75)" text-anchor="start" onmouseover="Opal.top.uicontroller.harpnote_preview_printer.$_bind_on_mouseover(evt, id)"><tspan dy="1.2em" x="309.5238095238095">Zupfnoter: https://www.zupfnoter.de</tspan></text></g><g id="ZN_18" x="361.90476190476187" y="289"><text x="361.90476190476187" y="289" id="ZN_18" font-size="2" font-family="Arial" transform="scale(1.05, 1) translate(0,-0.75)" text-anchor="start" onmouseover="Opal.top.uicontroller.harpnote_preview_printer.$_bind_on_mouseover(evt, id)"><tspan dy="1.2em" x="361.90476190476187">305 890 487</tspan></text></g><g id="ZN_19" fill="black" stroke="black" ><path id="ZN_19" stroke-linecap="round" onmouseover="Opal.top.uicontroller.harpnote_preview_printer.$_bind_on_mouseover(evt, id)" stroke-width="0.1" d="M2.3 8.5l0.5 -1l0.5 1l0 5l-0.5 1l-0.5 -1l0 -5"/></g><g id="ZN_20" fill="black" stroke="black" ><path id="ZN_20" stroke-linecap="round" onmouseover="Opal.top.uicontroller.harpnote_preview_printer.$_bind_on_mouseover(evt, id)" stroke-width="0.1" d="M140.3 8.5l0.5 -1l0.5 1l0 5l-0.5 1l-0.5 -1l0 -5"/></g><g id="ZN_21" fill="black" stroke="black" ><path id="ZN_21" stroke-linecap="round" onmouseover="Opal.top.uicontroller.harpnote_preview_printer.$_bind_on_mouseover(evt, id)" stroke-width="0.1" d="M416.3 8.5l0.5 -1l0.5 1l0 5l-0.5 1l-0.5 -1l0 -5"/></g><g id="ZN_22" x="136.83333333333334" y="4"><text x="136.83333333333334" y="4" id="ZN_22" font-size="3" font-family="Arial" transform="scale(1.05, 1) translate(0,-1.125)" text-anchor="start" onmouseover="Opal.top.uicontroller.harpnote_preview_printer.$_bind_on_mouseover(evt, id)"><tspan dy="1.2em" x="136.83333333333334">x</tspan></text></g><g id="ZN_23" x="136.83333333333334" y="290"><text x="136.83333333333334" y="290" id="ZN_23" font-size="3" font-family="Arial" transform="scale(1.05, 1) translate(0,-1.125)" text-anchor="start" onmouseover="Opal.top.uicontroller.harpnote_preview_printer.$_bind_on_mouseover(evt, id)"><tspan dy="1.2em" x="136.83333333333334">x</tspan></text></g><g id="ZN_24" x="268.26190476190476" y="4"><text x="268.26190476190476" y="4" id="ZN_24" font-size="3" font-family="Arial" transform="scale(1.05, 1) translate(0,-1.125)" text-anchor="start" onmouseover="Opal.top.uicontroller.harpnote_preview_printer.$_bind_on_mouseover(evt, id)"><tspan dy="1.2em" x="268.26190476190476">x</tspan></text></g><g id="ZN_25" x="268.26190476190476" y="290"><text x="268.26190476190476" y="290" id="ZN_25" font-size="3" font-family="Arial" transform="scale(1.05, 1) translate(0,-1.125)" text-anchor="start" onmouseover="Opal.top.uicontroller.harpnote_preview_printer.$_bind_on_mouseover(evt, id)"><tspan dy="1.2em" x="268.26190476190476">x</tspan></text></g></svg>