<svg xmlns="http://www.w3.org/2000/svg" width="2200" height="1400" viewBox="0, 0, 420, 297" > <rect id="ZN_1" x="1" y="1" width="418" height="295" rx="0" ry="0" fill="none" stroke="black" stroke-width="0.2" /><rect id="ZN_2" x="0" y="0" width="420" height="297" rx="0" ry="0" fill="none" stroke="black" stroke-width="0.2" /><ellipse  cx="60.3" cy="18" rx="2.625" ry="1.275" fill="black" stroke="black" stroke-width="0"/><rect onclick="Opal.top.uicontroller.harpnote_preview_printer.$_clickabcnote(evt, id)" onmouseover="Opal.top.uicontroller.harpnote_preview_printer.$_bind_on_mouseover(evt, id)" class="abcref znref _109_" id="ZN_3" x="57.33125" y="16.04375" width="5.9375" height="3.9124999999999996"/><g id="ZN_4" x="304.76190476190476" y="7"><text x="304.76190476190476" y="7" id="ZN_4" font-size="6.666666666666667" font-family="Arial" transform="scale(1.05, 1) translate(0,-2.5)" font-weight="bold" text-anchor="start" onmouseover="Opal.top.uicontroller.harpnote_preview_printer.$_bind_on_mouseover(evt, id)"><tspan dy="1.2em" x="304.76190476190476">Single Note Test</tspan></text></g><g id="ZN_5" x="304.76190476190476" y="27"><text x="304.76190476190476" y="27" id="ZN_5" font-size="4" font-family="Arial" transform="scale(1.05, 1) translate(0,-1.5)" text-anchor="start" onmouseover="Opal.top.uicontroller.harpnote_preview_printer.$_bind_on_mouseover(evt, id)"><tspan dy="1.2em" x="304.76190476190476">alle Stimmen</tspan><tspan dy="1.2em" x="304.76190476190476">Zupfnoter TS Tests</tspan><tspan dy="1.2em" x="304.76190476190476">Takt: 4/4 (1/4=120)</tspan><tspan dy="1.2em" x="304.76190476190476">Tonart: C</tspan></text></g><g id="ZN_6" x="142.85714285714286" y="289"><text x="142.85714285714286" y="289" id="ZN_6" font-size="2" font-family="Arial" transform="scale(1.05, 1) translate(0,-0.75)" text-anchor="start" onmouseover="Opal.top.uicontroller.harpnote_preview_printer.$_bind_on_mouseover(evt, id)"><tspan dy="1.2em" x="142.85714285714286"> - created 2026-05-28 10:32:39 by Zupfnoter v1.17.1-15-gf0658c99 [zupfnoter-cli]</tspan></text></g><g id="ZN_7" x="309.5238095238095" y="289"><text x="309.5238095238095" y="289" id="ZN_7" font-size="2" font-family="Arial" transform="scale(1.05, 1) translate(0,-0.75)" text-anchor="start" onmouseover="Opal.top.uicontroller.harpnote_preview_printer.$_bind_on_mouseover(evt, id)"><tspan dy="1.2em" x="309.5238095238095">Zupfnoter: https://www.zupfnoter.de</tspan></text></g><g id="ZN_8" x="361.90476190476187" y="289"><text x="361.90476190476187" y="289" id="ZN_8" font-size="2" font-family="Arial" transform="scale(1.05, 1) translate(0,-0.75)" text-anchor="start" onmouseover="Opal.top.uicontroller.harpnote_preview_printer.$_bind_on_mouseover(evt, id)"><tspan dy="1.2em" x="361.90476190476187">305 876 591</tspan></text></g><g id="ZN_9" fill="black" stroke="black" ><path id="ZN_9" stroke-linecap="round" onmouseover="Opal.top.uicontroller.harpnote_preview_printer.$_bind_on_mouseover(evt, id)" stroke-width="0.1" d="M2.3 8.5l0.5 -1l0.5 1l0 5l-0.5 1l-0.5 -1l0 -5"/></g><g id="ZN_10" fill="black" stroke="black" ><path id="ZN_10" stroke-linecap="round" onmouseover="Opal.top.uicontroller.harpnote_preview_printer.$_bind_on_mouseover(evt, id)" stroke-width="0.1" d="M140.3 8.5l0.5 -1l0.5 1l0 5l-0.5 1l-0.5 -1l0 -5"/></g><g id="ZN_11" fill="black" stroke="black" ><path id="ZN_11" stroke-linecap="round" onmouseover="Opal.top.uicontroller.harpnote_preview_printer.$_bind_on_mouseover(evt, id)" stroke-width="0.1" d="M416.3 8.5l0.5 -1l0.5 1l0 5l-0.5 1l-0.5 -1l0 -5"/></g><g id="ZN_12" x="136.83333333333334" y="4"><text x="136.83333333333334" y="4" id="ZN_12" font-size="3" font-family="Arial" transform="scale(1.05, 1) translate(0,-1.125)" text-anchor="start" onmouseover="Opal.top.uicontroller.harpnote_preview_printer.$_bind_on_mouseover(evt, id)"><tspan dy="1.2em" x="136.83333333333334">x</tspan></text></g><g id="ZN_13" x="136.83333333333334" y="290"><text x="136.83333333333334" y="290" id="ZN_13" font-size="3" font-family="Arial" transform="scale(1.05, 1) translate(0,-1.125)" text-anchor="start" onmouseover="Opal.top.uicontroller.harpnote_preview_printer.$_bind_on_mouseover(evt, id)"><tspan dy="1.2em" x="136.83333333333334">x</tspan></text></g><g id="ZN_14" x="268.26190476190476" y="4"><text x="268.26190476190476" y="4" id="ZN_14" font-size="3" font-family="Arial" transform="scale(1.05, 1) translate(0,-1.125)" text-anchor="start" onmouseover="Opal.top.uicontroller.harpnote_preview_printer.$_bind_on_mouseover(evt, id)"><tspan dy="1.2em" x="268.26190476190476">x</tspan></text></g><g id="ZN_15" x="268.26190476190476" y="290"><text x="268.26190476190476" y="290" id="ZN_15" font-size="3" font-family="Arial" transform="scale(1.05, 1) translate(0,-1.125)" text-anchor="start" onmouseover="Opal.top.uicontroller.harpnote_preview_printer.$_bind_on_mouseover(evt, id)"><tspan dy="1.2em" x="268.26190476190476">x</tspan></text></g></svg>