<svg xmlns="http://www.w3.org/2000/svg" width="2200" height="1400" viewBox="0, 0, 420, 297" > <rect id="ZN_1" x="1" y="1" width="418" height="295" rx="0" ry="0" fill="none" stroke="black" stroke-width="0.2" /><rect id="ZN_2" x="0" y="0" width="420" height="297" rx="0" ry="0" fill="none" stroke="black" stroke-width="0.2" /><g id="ZN_3" fill="" stroke="black" ><path id="ZN_3" stroke-dasharray="1.0563380281690142 1.0563380281690142" stroke-width="0.1" d="M198.3,18L60.3,18"/></g><g id="ZN_4" fill="" stroke="black" ><path id="ZN_4" stroke-dasharray="1.0563380281690142 1.0563380281690142" stroke-width="0.1" d="M221.3,24L83.3,24"/></g><g id="ZN_5" fill="" stroke="black" ><path id="ZN_5" stroke-dasharray="1.0563380281690142 1.0563380281690142" stroke-width="0.1" d="M244.3,39L106.3,39"/></g><g id="ZN_6" fill="" stroke="black" ><path id="ZN_6" stroke-dasharray="1.0563380281690142 1.0563380281690142" stroke-width="0.1" d="M255.8,45L117.8,45"/></g><g id="ZN_7" fill="" stroke="black" ><path id="ZN_7" stroke-dasharray="1.0563380281690142 1.0563380281690142" stroke-width="0.1" d="M278.8,60L140.8,60"/></g><g id="ZN_8" fill="" stroke="black" ><path id="ZN_8" stroke-dasharray="1.0563380281690142 1.0563380281690142" stroke-width="0.1" d="M301.8,66L163.8,66"/></g><g id="ZN_9" fill="" stroke="black" ><path id="ZN_9" stroke-dasharray="1.0563380281690142 1.0563380281690142" stroke-width="0.1" d="M324.8,81L186.8,81"/></g><g id="ZN_10" fill="" stroke="black" ><path id="ZN_10" stroke-dasharray="1.0563380281690142 1.0563380281690142" stroke-width="0.1" d="M336.3,87L198.3,87"/></g><g id="ZN_11" fill="" stroke="black" ><path id="ZN_11" stroke-dasharray="1.0563380281690142 1.0563380281690142" stroke-width="0.1" d="M359.3,102L221.3,102"/></g><g id="ZN_12" fill="" stroke="black" ><path id="ZN_12" stroke-dasharray="1.0563380281690142 1.0563380281690142" stroke-width="0.1" d="M382.3,108L244.3,108"/></g><g id="ZN_13" fill="" stroke="black" ><path id="ZN_13" stroke-width="0.3" d="M198.3,18L221.3,24"/></g><g id="ZN_14" fill="" stroke="black" ><path id="ZN_14" stroke-width="0.3" d="M244.3,39L255.8,45"/></g><g id="ZN_15" fill="" stroke="black" ><path id="ZN_15" stroke-width="0.3" d="M278.8,60L301.8,66"/></g><g id="ZN_16" fill="" stroke="black" ><path id="ZN_16" stroke-width="0.3" d="M324.8,81L336.3,87"/></g><g id="ZN_17" fill="" stroke="black" ><path id="ZN_17" stroke-width="0.3" d="M359.3,102L382.3,108"/></g><ellipse  cx="198.3" cy="18" rx="2.625" ry="1.275" fill="black" stroke="black" stroke-width="0"/><rect onclick="Opal.top.uicontroller.harpnote_preview_printer.$_clickabcnote(evt, id)" onmouseover="Opal.top.uicontroller.harpnote_preview_printer.$_bind_on_mouseover(evt, id)" class="abcref znref _113_" id="ZN_18" x="195.33125" y="16.04375" width="5.9375" height="3.9124999999999996"/><ellipse  cx="221.3" cy="24" rx="2.625" ry="1.275" fill="black" stroke="black" stroke-width="0"/><rect onclick="Opal.top.uicontroller.harpnote_preview_printer.$_clickabcnote(evt, id)" onmouseover="Opal.top.uicontroller.harpnote_preview_printer.$_bind_on_mouseover(evt, id)" class="abcref znref _115_" id="ZN_19" x="218.33125" y="22.04375" width="5.9375" height="3.9124999999999996"/><ellipse  cx="244.3" cy="39" rx="2.625" ry="1.275" fill="black" stroke="black" stroke-width="0"/><rect onclick="Opal.top.uicontroller.harpnote_preview_printer.$_clickabcnote(evt, id)" onmouseover="Opal.top.uicontroller.harpnote_preview_printer.$_bind_on_mouseover(evt, id)" class="abcref znref _125_" id="ZN_20" x="241.33125" y="37.04375" width="5.9375" height="3.9124999999999996"/><rect id="ZN_21" x="241.675" y="36.975" width="5.25" height="0.5" rx="0" ry="0" fill="black" stroke="black" stroke-width="0" /><ellipse  cx="255.8" cy="45" rx="2.625" ry="1.275" fill="black" stroke="black" stroke-width="0"/><rect onclick="Opal.top.uicontroller.harpnote_preview_printer.$_clickabcnote(evt, id)" onmouseover="Opal.top.uicontroller.harpnote_preview_printer.$_bind_on_mouseover(evt, id)" class="abcref znref _127_" id="ZN_22" x="252.83125" y="43.04375" width="5.9375" height="3.9124999999999996"/><ellipse  cx="278.8" cy="60" rx="2.625" ry="1.275" fill="black" stroke="black" stroke-width="0"/><rect onclick="Opal.top.uicontroller.harpnote_preview_printer.$_clickabcnote(evt, id)" onmouseover="Opal.top.uicontroller.harpnote_preview_printer.$_bind_on_mouseover(evt, id)" class="abcref znref _142_" id="ZN_23" x="275.83125" y="58.04375" width="5.9375" height="3.9124999999999996"/><rect id="ZN_24" x="276.175" y="57.975" width="5.25" height="0.5" rx="0" ry="0" fill="black" stroke="black" stroke-width="0" /><ellipse  cx="301.8" cy="66" rx="2.625" ry="1.275" fill="black" stroke="black" stroke-width="0"/><rect onclick="Opal.top.uicontroller.harpnote_preview_printer.$_clickabcnote(evt, id)" onmouseover="Opal.top.uicontroller.harpnote_preview_printer.$_bind_on_mouseover(evt, id)" class="abcref znref _144_" id="ZN_25" x="298.83125" y="64.04375" width="5.9375" height="3.9124999999999996"/><ellipse  cx="324.8" cy="81" rx="2.625" ry="1.275" fill="black" stroke="black" stroke-width="0"/><rect onclick="Opal.top.uicontroller.harpnote_preview_printer.$_clickabcnote(evt, id)" onmouseover="Opal.top.uicontroller.harpnote_preview_printer.$_bind_on_mouseover(evt, id)" class="abcref znref _153_" id="ZN_26" x="321.83125" y="79.04375" width="5.9375" height="3.9124999999999996"/><rect id="ZN_27" x="322.175" y="78.975" width="5.25" height="0.5" rx="0" ry="0" fill="black" stroke="black" stroke-width="0" /><ellipse  cx="336.3" cy="87" rx="2.625" ry="1.275" fill="black" stroke="black" stroke-width="0"/><rect onclick="Opal.top.uicontroller.harpnote_preview_printer.$_clickabcnote(evt, id)" onmouseover="Opal.top.uicontroller.harpnote_preview_printer.$_bind_on_mouseover(evt, id)" class="abcref znref _155_" id="ZN_28" x="333.33125" y="85.04375" width="5.9375" height="3.9124999999999996"/><ellipse  cx="359.3" cy="102" rx="2.625" ry="1.275" fill="black" stroke="black" stroke-width="0"/><rect onclick="Opal.top.uicontroller.harpnote_preview_printer.$_clickabcnote(evt, id)" onmouseover="Opal.top.uicontroller.harpnote_preview_printer.$_bind_on_mouseover(evt, id)" class="abcref znref _170_" id="ZN_29" x="356.33125" y="100.04375" width="5.9375" height="3.9124999999999996"/><rect id="ZN_30" x="356.675" y="99.975" width="5.25" height="0.5" rx="0" ry="0" fill="black" stroke="black" stroke-width="0" /><ellipse  cx="382.3" cy="108" rx="2.625" ry="1.275" fill="black" stroke="black" stroke-width="0"/><rect onclick="Opal.top.uicontroller.harpnote_preview_printer.$_clickabcnote(evt, id)" onmouseover="Opal.top.uicontroller.harpnote_preview_printer.$_bind_on_mouseover(evt, id)" class="abcref znref _172_" id="ZN_31" x="379.33125" y="106.04375" width="5.9375" height="3.9124999999999996"/><rect id="ZN_32" x="239.8" y="32.035000000000004" width="4.048" height="3.6633333333333327" rx="0" ry="0" fill="white" stroke="white" stroke-width="0" /><rect id="ZN_33" x="274.3" y="53.035000000000004" width="11.795" height="3.6633333333333327" rx="0" ry="0" fill="white" stroke="white" stroke-width="0" /><rect id="ZN_34" x="320.3" y="73.4" width="1" height="0.7" rx="0" ry="0" fill="white" stroke="white" stroke-width="0" /><rect id="ZN_35" x="354.8" y="95.035" width="11.795" height="3.6633333333333327" rx="0" ry="0" fill="white" stroke="white" stroke-width="0" /><g id="ZN_36" x="228.85714285714286" y="32"><text x="228.85714285714286" y="32" id="ZN_36" font-size="4" font-family="Arial" transform="scale(1.05, 1) translate(0,-1.5)" font-weight="bold" text-anchor="start" onmouseover="Opal.top.uicontroller.harpnote_preview_printer.$_bind_on_mouseover(evt, id)"><tspan dy="1.2em" x="228.85714285714286">A</tspan></text></g><g id="ZN_37" x="261.7142857142857" y="53"><text x="261.7142857142857" y="53" id="ZN_37" font-size="4" font-family="Arial" transform="scale(1.05, 1) translate(0,-1.5)" font-weight="bold" text-anchor="start" onmouseover="Opal.top.uicontroller.harpnote_preview_printer.$_bind_on_mouseover(evt, id)"><tspan dy="1.2em" x="261.7142857142857">Teil 1</tspan></text></g><g id="ZN_38" x="305.5238095238095" y="74"><text x="305.5238095238095" y="74" id="ZN_38" font-size="4" font-family="Arial" transform="scale(1.05, 1) translate(0,-1.5)" font-weight="bold" text-anchor="start" onmouseover="Opal.top.uicontroller.harpnote_preview_printer.$_bind_on_mouseover(evt, id)"></text></g><g id="ZN_39" x="338.38095238095235" y="95"><text x="338.38095238095235" y="95" id="ZN_39" font-size="4" font-family="Arial" transform="scale(1.05, 1) translate(0,-1.5)" font-weight="bold" text-anchor="start" onmouseover="Opal.top.uicontroller.harpnote_preview_printer.$_bind_on_mouseover(evt, id)"><tspan dy="1.2em" x="338.38095238095235">Teil 2</tspan></text></g><ellipse  cx="60.3" cy="18" rx="2.625" ry="1.275" fill="black" stroke="black" stroke-width="0"/><rect onclick="Opal.top.uicontroller.harpnote_preview_printer.$_clickabcnote(evt, id)" onmouseover="Opal.top.uicontroller.harpnote_preview_printer.$_bind_on_mouseover(evt, id)" class="abcref znref _181_" id="ZN_40" x="57.33125" y="16.04375" width="5.9375" height="3.9124999999999996"/><ellipse  cx="83.3" cy="24" rx="2.625" ry="1.275" fill="black" stroke="black" stroke-width="0"/><rect onclick="Opal.top.uicontroller.harpnote_preview_printer.$_clickabcnote(evt, id)" onmouseover="Opal.top.uicontroller.harpnote_preview_printer.$_bind_on_mouseover(evt, id)" class="abcref znref _184_" id="ZN_41" x="80.33125" y="22.04375" width="5.9375" height="3.9124999999999996"/><ellipse  cx="106.3" cy="39" rx="2.625" ry="1.275" fill="black" stroke="black" stroke-width="0"/><rect onclick="Opal.top.uicontroller.harpnote_preview_printer.$_clickabcnote(evt, id)" onmouseover="Opal.top.uicontroller.harpnote_preview_printer.$_bind_on_mouseover(evt, id)" class="abcref znref _189_" id="ZN_42" x="103.33125" y="37.04375" width="5.9375" height="3.9124999999999996"/><rect id="ZN_43" x="103.675" y="36.975" width="5.25" height="0.5" rx="0" ry="0" fill="black" stroke="black" stroke-width="0" /><ellipse  cx="117.8" cy="45" rx="2.625" ry="1.275" fill="black" stroke="black" stroke-width="0"/><rect onclick="Opal.top.uicontroller.harpnote_preview_printer.$_clickabcnote(evt, id)" onmouseover="Opal.top.uicontroller.harpnote_preview_printer.$_bind_on_mouseover(evt, id)" class="abcref znref _192_" id="ZN_44" x="114.83125" y="43.04375" width="5.9375" height="3.9124999999999996"/><ellipse  cx="140.8" cy="60" rx="2.625" ry="1.275" fill="black" stroke="black" stroke-width="0"/><rect onclick="Opal.top.uicontroller.harpnote_preview_printer.$_clickabcnote(evt, id)" onmouseover="Opal.top.uicontroller.harpnote_preview_printer.$_bind_on_mouseover(evt, id)" class="abcref znref _197_" id="ZN_45" x="137.83125" y="58.04375" width="5.9375" height="3.9124999999999996"/><rect id="ZN_46" x="138.175" y="57.975" width="5.25" height="0.5" rx="0" ry="0" fill="black" stroke="black" stroke-width="0" /><ellipse  cx="163.8" cy="66" rx="2.625" ry="1.275" fill="black" stroke="black" stroke-width="0"/><rect onclick="Opal.top.uicontroller.harpnote_preview_printer.$_clickabcnote(evt, id)" onmouseover="Opal.top.uicontroller.harpnote_preview_printer.$_bind_on_mouseover(evt, id)" class="abcref znref _200_" id="ZN_47" x="160.83125" y="64.04375" width="5.9375" height="3.9124999999999996"/><ellipse  cx="186.8" cy="81" rx="2.625" ry="1.275" fill="black" stroke="black" stroke-width="0"/><rect onclick="Opal.top.uicontroller.harpnote_preview_printer.$_clickabcnote(evt, id)" onmouseover="Opal.top.uicontroller.harpnote_preview_printer.$_bind_on_mouseover(evt, id)" class="abcref znref _205_" id="ZN_48" x="183.83125" y="79.04375" width="5.9375" height="3.9124999999999996"/><rect id="ZN_49" x="184.175" y="78.975" width="5.25" height="0.5" rx="0" ry="0" fill="black" stroke="black" stroke-width="0" /><ellipse  cx="198.3" cy="87" rx="2.625" ry="1.275" fill="black" stroke="black" stroke-width="0"/><rect onclick="Opal.top.uicontroller.harpnote_preview_printer.$_clickabcnote(evt, id)" onmouseover="Opal.top.uicontroller.harpnote_preview_printer.$_bind_on_mouseover(evt, id)" class="abcref znref _208_" id="ZN_50" x="195.33125" y="85.04375" width="5.9375" height="3.9124999999999996"/><ellipse  cx="221.3" cy="102" rx="2.625" ry="1.275" fill="black" stroke="black" stroke-width="0"/><rect onclick="Opal.top.uicontroller.harpnote_preview_printer.$_clickabcnote(evt, id)" onmouseover="Opal.top.uicontroller.harpnote_preview_printer.$_bind_on_mouseover(evt, id)" class="abcref znref _213_" id="ZN_51" x="218.33125" y="100.04375" width="5.9375" height="3.9124999999999996"/><rect id="ZN_52" x="218.675" y="99.975" width="5.25" height="0.5" rx="0" ry="0" fill="black" stroke="black" stroke-width="0" /><ellipse  cx="244.3" cy="108" rx="2.625" ry="1.275" fill="black" stroke="black" stroke-width="0"/><rect onclick="Opal.top.uicontroller.harpnote_preview_printer.$_clickabcnote(evt, id)" onmouseover="Opal.top.uicontroller.harpnote_preview_printer.$_bind_on_mouseover(evt, id)" class="abcref znref _216_" id="ZN_53" x="241.33125" y="106.04375" width="5.9375" height="3.9124999999999996"/><rect id="ZN_54" x="101.8" y="32.035000000000004" width="4.048" height="3.6633333333333327" rx="0" ry="0" fill="white" stroke="white" stroke-width="0" /><rect id="ZN_55" x="136.3" y="53.035000000000004" width="11.795" height="3.6633333333333327" rx="0" ry="0" fill="white" stroke="white" stroke-width="0" /><rect id="ZN_56" x="182.3" y="73.4" width="1" height="0.7" rx="0" ry="0" fill="white" stroke="white" stroke-width="0" /><rect id="ZN_57" x="216.8" y="95.035" width="11.795" height="3.6633333333333327" rx="0" ry="0" fill="white" stroke="white" stroke-width="0" /><g id="ZN_58" x="97.42857142857142" y="32"><text x="97.42857142857142" y="32" id="ZN_58" font-size="4" font-family="Arial" transform="scale(1.05, 1) translate(0,-1.5)" font-weight="bold" text-anchor="start" onmouseover="Opal.top.uicontroller.harpnote_preview_printer.$_bind_on_mouseover(evt, id)"><tspan dy="1.2em" x="97.42857142857142">A</tspan></text></g><g id="ZN_59" x="130.28571428571428" y="53"><text x="130.28571428571428" y="53" id="ZN_59" font-size="4" font-family="Arial" transform="scale(1.05, 1) translate(0,-1.5)" font-weight="bold" text-anchor="start" onmouseover="Opal.top.uicontroller.harpnote_preview_printer.$_bind_on_mouseover(evt, id)"><tspan dy="1.2em" x="130.28571428571428">Teil 1</tspan></text></g><g id="ZN_60" x="174.0952380952381" y="74"><text x="174.0952380952381" y="74" id="ZN_60" font-size="4" font-family="Arial" transform="scale(1.05, 1) translate(0,-1.5)" font-weight="bold" text-anchor="start" onmouseover="Opal.top.uicontroller.harpnote_preview_printer.$_bind_on_mouseover(evt, id)"></text></g><g id="ZN_61" x="206.95238095238096" y="95"><text x="206.95238095238096" y="95" id="ZN_61" font-size="4" font-family="Arial" transform="scale(1.05, 1) translate(0,-1.5)" font-weight="bold" text-anchor="start" onmouseover="Opal.top.uicontroller.harpnote_preview_printer.$_bind_on_mouseover(evt, id)"><tspan dy="1.2em" x="206.95238095238096">Teil 2</tspan></text></g><g id="ZN_62" x="304.76190476190476" y="7"><text x="304.76190476190476" y="7" id="ZN_62" font-size="6.666666666666667" font-family="Arial" transform="scale(1.05, 1) translate(0,-2.5)" font-weight="bold" text-anchor="start" onmouseover="Opal.top.uicontroller.harpnote_preview_printer.$_bind_on_mouseover(evt, id)"><tspan dy="1.2em" x="304.76190476190476">Partfolge mit benannten Markern</tspan></text></g><g id="ZN_63" x="304.76190476190476" y="27"><text x="304.76190476190476" y="27" id="ZN_63" font-size="4" font-family="Arial" transform="scale(1.05, 1) translate(0,-1.5)" text-anchor="start" onmouseover="Opal.top.uicontroller.harpnote_preview_printer.$_bind_on_mouseover(evt, id)"><tspan dy="1.2em" x="304.76190476190476">alle Stimmen</tspan><tspan dy="1.2em" x="304.76190476190476"> </tspan><tspan dy="1.2em" x="304.76190476190476">Takt: 4/4 (1/4=120)</tspan><tspan dy="1.2em" x="304.76190476190476">Tonart: C</tspan></text></g><g id="ZN_64" x="142.85714285714286" y="289"><text x="142.85714285714286" y="289" id="ZN_64" font-size="2" font-family="Arial" transform="scale(1.05, 1) translate(0,-0.75)" text-anchor="start" onmouseover="Opal.top.uicontroller.harpnote_preview_printer.$_bind_on_mouseover(evt, id)"><tspan dy="1.2em" x="142.85714285714286"> - created 2026-09-06 09:25:33 by Zupfnoter v1.17.1-15-gf0658c99 [zupfnoter-cli]</tspan></text></g><g id="ZN_65" x="309.5238095238095" y="289"><text x="309.5238095238095" y="289" id="ZN_65" font-size="2" font-family="Arial" transform="scale(1.05, 1) translate(0,-0.75)" text-anchor="start" onmouseover="Opal.top.uicontroller.harpnote_preview_printer.$_bind_on_mouseover(evt, id)"><tspan dy="1.2em" x="309.5238095238095">Zupfnoter: https://www.zupfnoter.de</tspan></text></g><g id="ZN_66" x="361.90476190476187" y="289"><text x="361.90476190476187" y="289" id="ZN_66" font-size="2" font-family="Arial" transform="scale(1.05, 1) translate(0,-0.75)" text-anchor="start" onmouseover="Opal.top.uicontroller.harpnote_preview_printer.$_bind_on_mouseover(evt, id)"><tspan dy="1.2em" x="361.90476190476187">307 045 613</tspan></text></g><g id="ZN_67" fill="black" stroke="black" ><path id="ZN_67" stroke-linecap="round" onmouseover="Opal.top.uicontroller.harpnote_preview_printer.$_bind_on_mouseover(evt, id)" stroke-width="0.1" d="M2.3 8.5l0.5 -1l0.5 1l0 5l-0.5 1l-0.5 -1l0 -5"/></g><g id="ZN_68" fill="black" stroke="black" ><path id="ZN_68" stroke-linecap="round" onmouseover="Opal.top.uicontroller.harpnote_preview_printer.$_bind_on_mouseover(evt, id)" stroke-width="0.1" d="M140.3 8.5l0.5 -1l0.5 1l0 5l-0.5 1l-0.5 -1l0 -5"/></g><g id="ZN_69" fill="black" stroke="black" ><path id="ZN_69" stroke-linecap="round" onmouseover="Opal.top.uicontroller.harpnote_preview_printer.$_bind_on_mouseover(evt, id)" stroke-width="0.1" d="M416.3 8.5l0.5 -1l0.5 1l0 5l-0.5 1l-0.5 -1l0 -5"/></g><g id="ZN_70" x="136.83333333333334" y="4"><text x="136.83333333333334" y="4" id="ZN_70" font-size="3" font-family="Arial" transform="scale(1.05, 1) translate(0,-1.125)" text-anchor="start" onmouseover="Opal.top.uicontroller.harpnote_preview_printer.$_bind_on_mouseover(evt, id)"><tspan dy="1.2em" x="136.83333333333334">x</tspan></text></g><g id="ZN_71" x="136.83333333333334" y="290"><text x="136.83333333333334" y="290" id="ZN_71" font-size="3" font-family="Arial" transform="scale(1.05, 1) translate(0,-1.125)" text-anchor="start" onmouseover="Opal.top.uicontroller.harpnote_preview_printer.$_bind_on_mouseover(evt, id)"><tspan dy="1.2em" x="136.83333333333334">x</tspan></text></g><g id="ZN_72" x="268.26190476190476" y="4"><text x="268.26190476190476" y="4" id="ZN_72" font-size="3" font-family="Arial" transform="scale(1.05, 1) translate(0,-1.125)" text-anchor="start" onmouseover="Opal.top.uicontroller.harpnote_preview_printer.$_bind_on_mouseover(evt, id)"><tspan dy="1.2em" x="268.26190476190476">x</tspan></text></g><g id="ZN_73" x="268.26190476190476" y="290"><text x="268.26190476190476" y="290" id="ZN_73" font-size="3" font-family="Arial" transform="scale(1.05, 1) translate(0,-1.125)" text-anchor="start" onmouseover="Opal.top.uicontroller.harpnote_preview_printer.$_bind_on_mouseover(evt, id)"><tspan dy="1.2em" x="268.26190476190476">x</tspan></text></g></svg>