<svg xmlns="http://www.w3.org/2000/svg" width="1600" height="900" viewBox="0 0 1600 900"><rect width="1600" height="900" fill="#f4f7f9"/>
  <text x="100" y="120" font-family="Verdana" font-size="58" font-weight="bold" fill="#102a43">Ein Zugang – mehrere Speicherorte</text>
  <g font-family="Verdana" text-anchor="middle"><rect x="110" y="290" width="310" height="260" rx="30" fill="#087f8c"/><path d="M210 390c0-55 90-75 120-25 65-5 75 95 10 105H205c-70-5-62-80 5-80" fill="white"/><text x="265" y="620" font-size="36" font-weight="bold" fill="#102a43">Dropbox</text>
  <path d="M460 420h140" stroke="#087f8c" stroke-width="12"/><path d="m580 390 45 30-45 30" fill="#087f8c"/>
  <g font-size="34" font-weight="bold" fill="#102a43"><rect x="650" y="210" width="330" height="130" rx="24" fill="white" stroke="#68b9bd" stroke-width="4"/><text x="815" y="290">Privat</text><rect x="650" y="385" width="330" height="130" rx="24" fill="white" stroke="#68b9bd" stroke-width="4"/><text x="815" y="465">Gruppe</text><rect x="650" y="560" width="330" height="130" rx="24" fill="white" stroke="#68b9bd" stroke-width="4"/><text x="815" y="640">Archiv · nur lesen</text></g>
  <path d="M1020 450h140" stroke="#f8c15c" stroke-width="12" stroke-dasharray="18 16"/><path d="m1140 420 45 30-45 30" fill="#f8c15c"/>
  <rect x="1210" y="300" width="290" height="300" rx="32" fill="#102a43"/><text x="1355" y="405" font-size="34" font-weight="bold" fill="white">weitere</text><text x="1355" y="455" font-size="34" font-weight="bold" fill="white">Anbieter</text><text x="1355" y="525" font-size="75" fill="#f8c15c">+</text></g></svg>
