<svg xmlns="http://www.w3.org/2000/svg" width="1600" height="900" viewBox="0 0 1600 900"><rect width="1600" height="900" fill="#102a43"/>
  <text x="100" y="120" font-family="Verdana" font-size="58" font-weight="bold" fill="white">Vergleichstests geben Sicherheit</text>
  <g font-family="Verdana" text-anchor="middle"><g fill="white"><rect x="130" y="250" width="220" height="300" rx="16"/><rect x="190" y="210" width="220" height="300" rx="16" opacity=".75"/><rect x="250" y="170" width="220" height="300" rx="16" opacity=".55"/></g>
  <text x="300" y="630" font-size="34" fill="#80e1d1">viele bestehende Stücke</text><path d="M500 390h180" stroke="#f8c15c" stroke-width="12"/><path d="m660 360 45 30-45 30" fill="#f8c15c"/>
  <rect x="720" y="220" width="330" height="330" rx="28" fill="#087f8c"/><text x="885" y="350" font-size="38" font-weight="bold" fill="white">Alt ↔ Neu</text><text x="885" y="420" font-size="31" fill="white">automatisch</text><text x="885" y="465" font-size="31" fill="white">vergleichen</text>
  <path d="M1080 390h180" stroke="#f8c15c" stroke-width="12"/><path d="m1240 360 45 30-45 30" fill="#f8c15c"/>
  <circle cx="1390" cy="385" r="110" fill="#1e9c73"/><path d="m1338 384 34 36 72-84" fill="none" stroke="white" stroke-width="24" stroke-linecap="round"/>
  <text x="800" y="730" font-size="39" fill="white">Künftig bei Bedarf auch für deinen eigenen Bestand</text></g></svg>
