<svg xmlns="http://www.w3.org/2000/svg" width="2200" height="1400" viewBox="0, 0, 420, 297" > <rect id="ZN_1" x="1" y="1" width="418" height="295" rx="0" ry="0" fill="none" stroke="black" stroke-width="0.2" /><rect id="ZN_2" x="0" y="0" width="420" height="297" rx="0" ry="0" fill="none" stroke="black" stroke-width="0.2" /><g id="ZN_3" fill="" stroke="black" ><path id="ZN_3" stroke-width="0.3" d="M60.3,18L83.3,24"/></g><g id="ZN_4" fill="" stroke="black" ><path id="ZN_4" stroke-width="0.3" d="M106.3,39L117.8,45"/></g><g id="ZN_5" fill="" stroke="black" ><path id="ZN_5" stroke-width="0.3" d="M117.8,45L140.8,51"/></g><g id="ZN_6" fill="" stroke="black" ><path id="ZN_6" stroke-dasharray="0.5281690140845071 0.5281690140845071" stroke-width="0.1" d="M60.3,18L83.3,24"/></g><g id="ZN_7" fill="" stroke="black" ><path id="ZN_7" stroke-dasharray="0.5281690140845071 0.5281690140845071" stroke-width="0.1" d="M106.3,39L117.8,45"/></g><g id="ZN_8" fill="" stroke="black" ><path id="ZN_8" stroke-dasharray="0.5281690140845071 0.5281690140845071" stroke-width="0.1" d="M117.8,45L140.8,51"/></g><g id="ZN_9" fill="none" stroke="black" ><path id="ZN_9" stroke-linecap="round" onmouseover="Opal.top.uicontroller.harpnote_preview_printer.$_bind_on_mouseover(evt, id)" stroke-width="0.1" d="M106.3 39c3.531596718118682 -4.065442733648251 34.25360953129406 6.620474766586659 34.500000000000014 12"/></g><g id="ZN_10" fill="" stroke="grey" ><path id="ZN_10" class="zncontrol" stroke-width="1" onmouseover="Opal.top.uicontroller.harpnote_preview_printer.$_bind_on_mouseover(evt, id)" data-cp="cp1" d="M106.3,39L109.83159671811867,34.934557266351746"/></g><g id="ZN_11" fill="" stroke="grey" ><path id="ZN_11" class="zncontrol" stroke-width="1" onmouseover="Opal.top.uicontroller.harpnote_preview_printer.$_bind_on_mouseover(evt, id)" data-cp="cp2" d="M140.8,51L140.55360953129406,45.62047476658666"/></g><g id="ZN_12" x="119.46570818420219" y="37.56914341893959"><text x="119.46570818420219" y="37.56914341893959" id="ZN_12" font-size="4" font-family="Arial" transform="scale(1.05, 1) translate(0,-1.5)" font-weight="bold" text-anchor="start" onmouseover="Opal.top.uicontroller.harpnote_preview_printer.$_bind_on_mouseover(evt, id)"><tspan dy="1.2em" x="119.46570818420219">T=3</tspan></text></g><ellipse  cx="60.3" cy="18" rx="2.625" ry="1.275" fill="black" stroke="black" stroke-width="0"/><rect onclick="Opal.top.uicontroller.harpnote_preview_printer.$_clickabcnote(evt, id)" onmouseover="Opal.top.uicontroller.harpnote_preview_printer.$_bind_on_mouseover(evt, id)" class="abcref znref _124_" id="ZN_13" x="57.33125" y="16.04375" width="5.9375" height="3.9124999999999996"/><ellipse  cx="83.3" cy="24" rx="2.625" ry="1.275" fill="black" stroke="black" stroke-width="0"/><rect onclick="Opal.top.uicontroller.harpnote_preview_printer.$_clickabcnote(evt, id)" onmouseover="Opal.top.uicontroller.harpnote_preview_printer.$_bind_on_mouseover(evt, id)" class="abcref znref _130_" id="ZN_14" x="80.33125" y="22.04375" width="5.9375" height="3.9124999999999996"/><ellipse  cx="106.3" cy="39" rx="2.625" ry="1.275" fill="black" stroke="black" stroke-width="0"/><rect onclick="Opal.top.uicontroller.harpnote_preview_printer.$_clickabcnote(evt, id)" onmouseover="Opal.top.uicontroller.harpnote_preview_printer.$_bind_on_mouseover(evt, id)" class="abcref znref _138_" id="ZN_15" x="103.33125" y="37.04375" width="5.9375" height="3.9124999999999996"/><rect id="ZN_16" x="103.675" y="36.975" width="5.25" height="0.5" rx="0" ry="0" fill="black" stroke="black" stroke-width="0" /><ellipse  cx="117.8" cy="45" rx="2.625" ry="1.275" fill="black" stroke="black" stroke-width="0"/><rect onclick="Opal.top.uicontroller.harpnote_preview_printer.$_clickabcnote(evt, id)" onmouseover="Opal.top.uicontroller.harpnote_preview_printer.$_bind_on_mouseover(evt, id)" class="abcref znref _139_" id="ZN_17" x="114.83125" y="43.04375" width="5.9375" height="3.9124999999999996"/><ellipse  cx="140.8" cy="51" rx="2.625" ry="1.275" fill="black" stroke="black" stroke-width="0"/><rect onclick="Opal.top.uicontroller.harpnote_preview_printer.$_clickabcnote(evt, id)" onmouseover="Opal.top.uicontroller.harpnote_preview_printer.$_bind_on_mouseover(evt, id)" class="abcref znref _140_" id="ZN_18" x="137.83125" y="49.04375" width="5.9375" height="3.9124999999999996"/><rect id="ZN_19" x="86.10000000000001" y="21.236250000000002" width="1.2890000000000001" height="2.5024999999999995" rx="0" ry="0" fill="white" stroke="white" stroke-width="0" /><g id="ZN_20" x="82.19047619047619" y="21"><text x="82.19047619047619" y="21" id="ZN_20" font-size="3" font-family="Arial" transform="scale(1.05, 1) translate(0,-1.125)" font-style="italic" text-anchor="start" onmouseover="Opal.top.uicontroller.harpnote_preview_printer.$_bind_on_mouseover(evt, id)"><tspan dy="1.2em" x="82.19047619047619">f</tspan></text></g><g id="ZN_21" fill="none" stroke="black" ><path id="ZN_21" stroke-linecap="round" onmouseover="Opal.top.uicontroller.harpnote_preview_printer.$_bind_on_mouseover(evt, id)" stroke-width="0.5" d="M146.425 53.275l11.625 0l0 -15.549999999999997M158.05 53.275L158.05 36.725L113.925 36.725"/></g><g id="ZN_22" fill="black" stroke="black" ><path id="ZN_22" stroke-linecap="round" onmouseover="Opal.top.uicontroller.harpnote_preview_printer.$_bind_on_mouseover(evt, id)" stroke-width="0.1" d="M111.925 36.725l2.5 1l0 -2l-2.5 1z"/></g><g id="ZN_23" fill="black" stroke="black" ><path id="ZN_23" stroke-linecap="round" onmouseover="Opal.top.uicontroller.harpnote_preview_printer.$_bind_on_mouseover(evt, id)" stroke-width="0.1" d=""/></g><rect id="ZN_24" x="66.8" y="15.035" width="10.821333333333333" height="3.6633333333333327" rx="0" ry="0" fill="white" stroke="white" stroke-width="0" /><g id="ZN_25" x="64.09523809523809" y="15"><text x="64.09523809523809" y="15" id="ZN_25" font-size="4" font-family="Arial" transform="scale(1.05, 1) translate(0,-1.5)" font-style="italic" text-anchor="start" onmouseover="Opal.top.uicontroller.harpnote_preview_printer.$_bind_on_mouseover(evt, id)"><tspan dy="1.2em" x="64.09523809523809">voice</tspan></text></g><g id="ZN_26" x="304.76190476190476" y="7"><text x="304.76190476190476" y="7" id="ZN_26" font-size="6.666666666666667" font-family="Arial" transform="scale(1.05, 1) translate(0,-2.5)" font-weight="bold" text-anchor="start" onmouseover="Opal.top.uicontroller.harpnote_preview_printer.$_bind_on_mouseover(evt, id)"><tspan dy="1.2em" x="304.76190476190476">Config runtime parity</tspan></text></g><g id="ZN_27" x="304.76190476190476" y="27"><text x="304.76190476190476" y="27" id="ZN_27" font-size="4" font-family="Arial" transform="scale(1.05, 1) translate(0,-1.5)" text-anchor="start" onmouseover="Opal.top.uicontroller.harpnote_preview_printer.$_bind_on_mouseover(evt, id)"><tspan dy="1.2em" x="304.76190476190476">alle Stimmen</tspan><tspan dy="1.2em" x="304.76190476190476"> </tspan><tspan dy="1.2em" x="304.76190476190476">Takt: 4/4 (1/4=120)</tspan><tspan dy="1.2em" x="304.76190476190476">Tonart: C</tspan></text></g><g id="ZN_28" x="142.85714285714286" y="289"><text x="142.85714285714286" y="289" id="ZN_28" font-size="2" font-family="Arial" transform="scale(1.05, 1) translate(0,-0.75)" text-anchor="start" onmouseover="Opal.top.uicontroller.harpnote_preview_printer.$_bind_on_mouseover(evt, id)"><tspan dy="1.2em" x="142.85714285714286">config-runtime-parity - created 2026-08-01 10:02:54 by Zupfnoter v1.17.1-15-gf0658c99 [zupfnoter-cli]</tspan></text></g><g id="ZN_29" x="309.5238095238095" y="289"><text x="309.5238095238095" y="289" id="ZN_29" font-size="2" font-family="Arial" transform="scale(1.05, 1) translate(0,-0.75)" text-anchor="start" onmouseover="Opal.top.uicontroller.harpnote_preview_printer.$_bind_on_mouseover(evt, id)"><tspan dy="1.2em" x="309.5238095238095">Zupfnoter: https://www.zupfnoter.de</tspan></text></g><g id="ZN_30" x="361.90476190476187" y="289"><text x="361.90476190476187" y="289" id="ZN_30" font-size="2" font-family="Arial" transform="scale(1.05, 1) translate(0,-0.75)" text-anchor="start" onmouseover="Opal.top.uicontroller.harpnote_preview_printer.$_bind_on_mouseover(evt, id)"><tspan dy="1.2em" x="361.90476190476187">306 143 531</tspan></text></g><g id="ZN_31" fill="black" stroke="black" ><path id="ZN_31" stroke-linecap="round" onmouseover="Opal.top.uicontroller.harpnote_preview_printer.$_bind_on_mouseover(evt, id)" stroke-width="0.1" d="M2.3 8.5l0.5 -1l0.5 1l0 5l-0.5 1l-0.5 -1l0 -5"/></g><g id="ZN_32" fill="black" stroke="black" ><path id="ZN_32" stroke-linecap="round" onmouseover="Opal.top.uicontroller.harpnote_preview_printer.$_bind_on_mouseover(evt, id)" stroke-width="0.1" d="M140.3 8.5l0.5 -1l0.5 1l0 5l-0.5 1l-0.5 -1l0 -5"/></g><g id="ZN_33" fill="black" stroke="black" ><path id="ZN_33" stroke-linecap="round" onmouseover="Opal.top.uicontroller.harpnote_preview_printer.$_bind_on_mouseover(evt, id)" stroke-width="0.1" d="M416.3 8.5l0.5 -1l0.5 1l0 5l-0.5 1l-0.5 -1l0 -5"/></g><g id="ZN_34" x="136.83333333333334" y="4"><text x="136.83333333333334" y="4" id="ZN_34" font-size="3" font-family="Arial" transform="scale(1.05, 1) translate(0,-1.125)" text-anchor="start" onmouseover="Opal.top.uicontroller.harpnote_preview_printer.$_bind_on_mouseover(evt, id)"><tspan dy="1.2em" x="136.83333333333334">x</tspan></text></g><g id="ZN_35" x="136.83333333333334" y="290"><text x="136.83333333333334" y="290" id="ZN_35" font-size="3" font-family="Arial" transform="scale(1.05, 1) translate(0,-1.125)" text-anchor="start" onmouseover="Opal.top.uicontroller.harpnote_preview_printer.$_bind_on_mouseover(evt, id)"><tspan dy="1.2em" x="136.83333333333334">x</tspan></text></g><g id="ZN_36" x="268.26190476190476" y="4"><text x="268.26190476190476" y="4" id="ZN_36" font-size="3" font-family="Arial" transform="scale(1.05, 1) translate(0,-1.125)" text-anchor="start" onmouseover="Opal.top.uicontroller.harpnote_preview_printer.$_bind_on_mouseover(evt, id)"><tspan dy="1.2em" x="268.26190476190476">x</tspan></text></g><g id="ZN_37" x="268.26190476190476" y="290"><text x="268.26190476190476" y="290" id="ZN_37" font-size="3" font-family="Arial" transform="scale(1.05, 1) translate(0,-1.125)" text-anchor="start" onmouseover="Opal.top.uicontroller.harpnote_preview_printer.$_bind_on_mouseover(evt, id)"><tspan dy="1.2em" x="268.26190476190476">x</tspan></text></g></svg>